{
	"patcher" : 	{
		"fileversion" : 1,
		"appversion" : 		{
			"major" : 5,
			"minor" : 1,
			"revision" : 9
		}
,
		"rect" : [ 55.0, 200.0, 479.0, 385.0 ],
		"bgcolor" : [ 0.145098, 0.07451, 0.376471, 1.0 ],
		"bglocked" : 0,
		"defrect" : [ 55.0, 200.0, 479.0, 385.0 ],
		"openrect" : [ 0.0, 0.0, 0.0, 0.0 ],
		"openinpresentation" : 1,
		"default_fontsize" : 10.0,
		"default_fontface" : 0,
		"default_fontname" : "Arial",
		"gridonopen" : 0,
		"gridsize" : [ 15.0, 15.0 ],
		"gridsnaponopen" : 0,
		"toolbarvisible" : 1,
		"boxanimatetime" : 200,
		"imprint" : 1,
		"enablehscroll" : 1,
		"enablevscroll" : 1,
		"devicewidth" : 0.0,
		"boxes" : [ 			{
				"box" : 				{
					"maxclass" : "message",
					"text" : "1",
					"bgcolor2" : [ 0.867, 0.867, 0.867, 1.0 ],
					"fontname" : "Arial",
					"outlettype" : [ "" ],
					"ignoreclick" : 0,
					"gradient" : 0,
					"hidden" : 0,
					"id" : "obj-70",
					"textcolor" : [ 0.0, 0.0, 0.0, 1.0 ],
					"presentation_rect" : [ 0.0, 0.0, 0.0, 0.0 ],
					"fontface" : 0,
					"fontsize" : 10.0,
					"numinlets" : 2,
					"patching_rect" : [ 15.0, 30.0, 32.5, 16.0 ],
					"presentation" : 0,
					"background" : 0,
					"numoutlets" : 1,
					"bgcolor" : [ 0.867, 0.867, 0.867, 1.0 ]
				}

			}
, 			{
				"box" : 				{
					"maxclass" : "newobj",
					"text" : "loadbang",
					"fontname" : "Arial",
					"outlettype" : [ "bang" ],
					"ignoreclick" : 0,
					"hidden" : 0,
					"id" : "obj-69",
					"textcolor" : [ 0.0, 0.0, 0.0, 1.0 ],
					"presentation_rect" : [ 0.0, 0.0, 0.0, 0.0 ],
					"fontface" : 0,
					"fontsize" : 10.0,
					"numinlets" : 1,
					"patching_rect" : [ 60.0, 0.0, 52.0, 18.0 ],
					"presentation" : 0,
					"background" : 0,
					"color" : [ 0.8, 0.84, 0.71, 1.0 ],
					"numoutlets" : 1,
					"bgcolor" : [ 1.0, 1.0, 1.0, 1.0 ]
				}

			}
, 			{
				"box" : 				{
					"maxclass" : "comment",
					"text" : "Rear Sensor",
					"fontname" : "Arial",
					"ignoreclick" : 1,
					"hidden" : 0,
					"id" : "obj-65",
					"underline" : 0,
					"textcolor" : [ 0.0, 0.0, 0.0, 1.0 ],
					"presentation_rect" : [ 330.0, 300.0, 79.0, 20.0 ],
					"frgb" : [ 0.0, 0.0, 0.0, 1.0 ],
					"fontface" : 0,
					"fontsize" : 11.595187,
					"numinlets" : 1,
					"patching_rect" : [ 540.0, 390.0, 79.0, 20.0 ],
					"presentation" : 1,
					"background" : 0,
					"numoutlets" : 0,
					"bgcolor" : [ 1.0, 1.0, 1.0, 0.0 ]
				}

			}
, 			{
				"box" : 				{
					"maxclass" : "comment",
					"text" : "Hat Right 7 13",
					"linecount" : 2,
					"fontname" : "Arial",
					"ignoreclick" : 1,
					"hidden" : 0,
					"id" : "obj-66",
					"underline" : 0,
					"textcolor" : [ 0.0, 0.0, 0.0, 1.0 ],
					"presentation_rect" : [ 225.0, 300.0, 83.0, 20.0 ],
					"frgb" : [ 0.0, 0.0, 0.0, 1.0 ],
					"fontface" : 0,
					"fontsize" : 11.595187,
					"numinlets" : 1,
					"patching_rect" : [ 405.0, 390.0, 79.0, 33.0 ],
					"presentation" : 1,
					"background" : 0,
					"numoutlets" : 0,
					"bgcolor" : [ 1.0, 1.0, 1.0, 0.0 ]
				}

			}
, 			{
				"box" : 				{
					"maxclass" : "comment",
					"text" : "Hat Left 4 12",
					"fontname" : "Arial",
					"ignoreclick" : 1,
					"hidden" : 0,
					"id" : "obj-67",
					"underline" : 0,
					"textcolor" : [ 0.0, 0.0, 0.0, 1.0 ],
					"presentation_rect" : [ 120.0, 300.0, 82.0, 20.0 ],
					"frgb" : [ 0.0, 0.0, 0.0, 1.0 ],
					"fontface" : 0,
					"fontsize" : 11.595187,
					"numinlets" : 1,
					"patching_rect" : [ 270.0, 390.0, 82.0, 20.0 ],
					"presentation" : 1,
					"background" : 0,
					"numoutlets" : 0,
					"bgcolor" : [ 1.0, 1.0, 1.0, 0.0 ]
				}

			}
, 			{
				"box" : 				{
					"maxclass" : "comment",
					"text" : "Front Buz 2 11",
					"linecount" : 2,
					"fontname" : "Arial",
					"ignoreclick" : 1,
					"hidden" : 0,
					"id" : "obj-68",
					"underline" : 0,
					"textcolor" : [ 0.0, 0.0, 0.0, 1.0 ],
					"presentation_rect" : [ 15.0, 300.0, 86.0, 20.0 ],
					"frgb" : [ 0.0, 0.0, 0.0, 1.0 ],
					"fontface" : 0,
					"fontsize" : 11.595187,
					"numinlets" : 1,
					"patching_rect" : [ 139.0, 389.0, 82.0, 33.0 ],
					"presentation" : 1,
					"background" : 0,
					"numoutlets" : 0,
					"bgcolor" : [ 1.0, 1.0, 1.0, 0.0 ]
				}

			}
, 			{
				"box" : 				{
					"maxclass" : "newobj",
					"text" : "< 20",
					"fontname" : "Arial",
					"outlettype" : [ "int" ],
					"ignoreclick" : 0,
					"hidden" : 0,
					"id" : "obj-63",
					"textcolor" : [ 0.0, 0.0, 0.0, 1.0 ],
					"presentation_rect" : [ 0.0, 0.0, 0.0, 0.0 ],
					"fontface" : 0,
					"fontsize" : 10.0,
					"numinlets" : 2,
					"patching_rect" : [ 570.0, 405.0, 32.5, 18.0 ],
					"presentation" : 0,
					"background" : 0,
					"color" : [ 0.8, 0.84, 0.71, 1.0 ],
					"numoutlets" : 1,
					"bgcolor" : [ 1.0, 1.0, 1.0, 1.0 ]
				}

			}
, 			{
				"box" : 				{
					"maxclass" : "newobj",
					"text" : "< 20",
					"fontname" : "Arial",
					"outlettype" : [ "int" ],
					"ignoreclick" : 0,
					"hidden" : 0,
					"id" : "obj-64",
					"textcolor" : [ 0.0, 0.0, 0.0, 1.0 ],
					"presentation_rect" : [ 0.0, 0.0, 0.0, 0.0 ],
					"fontface" : 0,
					"fontsize" : 10.0,
					"numinlets" : 2,
					"patching_rect" : [ 435.0, 405.0, 32.5, 18.0 ],
					"presentation" : 0,
					"background" : 0,
					"color" : [ 0.8, 0.84, 0.71, 1.0 ],
					"numoutlets" : 1,
					"bgcolor" : [ 1.0, 1.0, 1.0, 1.0 ]
				}

			}
, 			{
				"box" : 				{
					"maxclass" : "newobj",
					"text" : "< 20",
					"fontname" : "Arial",
					"outlettype" : [ "int" ],
					"ignoreclick" : 0,
					"hidden" : 0,
					"id" : "obj-62",
					"textcolor" : [ 0.0, 0.0, 0.0, 1.0 ],
					"presentation_rect" : [ 0.0, 0.0, 0.0, 0.0 ],
					"fontface" : 0,
					"fontsize" : 10.0,
					"numinlets" : 2,
					"patching_rect" : [ 300.0, 405.0, 32.5, 18.0 ],
					"presentation" : 0,
					"background" : 0,
					"color" : [ 0.8, 0.84, 0.71, 1.0 ],
					"numoutlets" : 1,
					"bgcolor" : [ 1.0, 1.0, 1.0, 1.0 ]
				}

			}
, 			{
				"box" : 				{
					"maxclass" : "comment",
					"text" : "Pulse Rate",
					"fontname" : "Arial",
					"ignoreclick" : 1,
					"hidden" : 0,
					"id" : "obj-61",
					"underline" : 0,
					"textcolor" : [ 0.0, 0.0, 0.0, 1.0 ],
					"presentation_rect" : [ 120.0, 75.0, 85.0, 18.0 ],
					"frgb" : [ 0.0, 0.0, 0.0, 1.0 ],
					"fontface" : 0,
					"fontsize" : 10.0,
					"numinlets" : 1,
					"patching_rect" : [ 285.0, 135.0, 150.0, 18.0 ],
					"presentation" : 1,
					"background" : 0,
					"numoutlets" : 0,
					"bgcolor" : [ 1.0, 1.0, 1.0, 0.0 ]
				}

			}
, 			{
				"box" : 				{
					"maxclass" : "comment",
					"text" : "Front Sensitivity",
					"fontname" : "Arial",
					"ignoreclick" : 1,
					"hidden" : 0,
					"id" : "obj-60",
					"underline" : 0,
					"textcolor" : [ 0.0, 0.0, 0.0, 1.0 ],
					"presentation_rect" : [ 255.0, 75.0, 91.0, 18.0 ],
					"frgb" : [ 0.0, 0.0, 0.0, 1.0 ],
					"fontface" : 0,
					"fontsize" : 10.0,
					"numinlets" : 1,
					"patching_rect" : [ 270.0, 375.0, 150.0, 18.0 ],
					"presentation" : 1,
					"background" : 0,
					"numoutlets" : 0,
					"bgcolor" : [ 1.0, 1.0, 1.0, 0.0 ]
				}

			}
, 			{
				"box" : 				{
					"maxclass" : "number",
					"fontname" : "Arial",
					"outlettype" : [ "int", "bang" ],
					"ignoreclick" : 0,
					"htricolor" : [ 0.87, 0.82, 0.24, 1.0 ],
					"outputonclick" : 0,
					"hidden" : 0,
					"bordercolor" : [ 0.5, 0.5, 0.5, 1.0 ],
					"id" : "obj-59",
					"textcolor" : [ 0.0, 0.0, 0.0, 1.0 ],
					"presentation_rect" : [ 255.0, 15.0, 102.0, 48.0 ],
					"hbgcolor" : [ 0.0, 0.0, 0.0, 1.0 ],
					"format" : 0,
					"tricolor" : [ 0.75, 0.75, 0.75, 1.0 ],
					"fontface" : 0,
					"triangle" : 1,
					"fontsize" : 36.0,
					"htextcolor" : [ 1.0, 1.0, 1.0, 1.0 ],
					"cantchange" : 0,
					"numinlets" : 1,
					"patching_rect" : [ -9.0, 415.0, 102.0, 48.0 ],
					"maximum" : 50,
					"presentation" : 1,
					"minimum" : 10,
					"background" : 0,
					"triscale" : 1.0,
					"mouseup" : 0,
					"numoutlets" : 2,
					"bgcolor" : [ 1.0, 1.0, 1.0, 1.0 ]
				}

			}
, 			{
				"box" : 				{
					"maxclass" : "newobj",
					"text" : "< 20",
					"fontname" : "Arial",
					"outlettype" : [ "int" ],
					"ignoreclick" : 0,
					"hidden" : 0,
					"id" : "obj-52",
					"textcolor" : [ 0.0, 0.0, 0.0, 1.0 ],
					"presentation_rect" : [ 0.0, 0.0, 0.0, 0.0 ],
					"fontface" : 0,
					"fontsize" : 10.0,
					"numinlets" : 2,
					"patching_rect" : [ 173.0, 409.0, 32.5, 18.0 ],
					"presentation" : 0,
					"background" : 0,
					"color" : [ 0.8, 0.84, 0.71, 1.0 ],
					"numoutlets" : 1,
					"bgcolor" : [ 1.0, 1.0, 1.0, 1.0 ]
				}

			}
, 			{
				"box" : 				{
					"maxclass" : "number",
					"fontname" : "Arial",
					"outlettype" : [ "int", "bang" ],
					"ignoreclick" : 0,
					"htricolor" : [ 0.87, 0.82, 0.24, 1.0 ],
					"outputonclick" : 0,
					"hidden" : 0,
					"bordercolor" : [ 0.5, 0.5, 0.5, 1.0 ],
					"id" : "obj-56",
					"textcolor" : [ 0.0, 0.0, 0.0, 1.0 ],
					"presentation_rect" : [ 0.0, 0.0, 0.0, 0.0 ],
					"hbgcolor" : [ 0.0, 0.0, 0.0, 1.0 ],
					"format" : 0,
					"tricolor" : [ 0.75, 0.75, 0.75, 1.0 ],
					"fontface" : 0,
					"triangle" : 1,
					"fontsize" : 10.0,
					"htextcolor" : [ 1.0, 1.0, 1.0, 1.0 ],
					"cantchange" : 0,
					"numinlets" : 1,
					"patching_rect" : [ 60.0, 555.0, 50.0, 18.0 ],
					"maximum" : 200,
					"presentation" : 0,
					"minimum" : 50,
					"background" : 0,
					"triscale" : 1.0,
					"mouseup" : 0,
					"numoutlets" : 2,
					"bgcolor" : [ 1.0, 1.0, 1.0, 1.0 ]
				}

			}
, 			{
				"box" : 				{
					"maxclass" : "number",
					"fontname" : "Arial",
					"outlettype" : [ "int", "bang" ],
					"ignoreclick" : 0,
					"htricolor" : [ 0.87, 0.82, 0.24, 1.0 ],
					"outputonclick" : 0,
					"hidden" : 0,
					"bordercolor" : [ 0.5, 0.5, 0.5, 1.0 ],
					"id" : "obj-55",
					"textcolor" : [ 0.0, 0.0, 0.0, 1.0 ],
					"presentation_rect" : [ 120.0, 15.0, 104.0, 48.0 ],
					"hbgcolor" : [ 0.0, 0.0, 0.0, 1.0 ],
					"format" : 0,
					"tricolor" : [ 0.75, 0.75, 0.75, 1.0 ],
					"fontface" : 0,
					"triangle" : 1,
					"fontsize" : 36.0,
					"htextcolor" : [ 1.0, 1.0, 1.0, 1.0 ],
					"cantchange" : 0,
					"numinlets" : 1,
					"patching_rect" : [ 0.0, 332.0, 104.0, 48.0 ],
					"maximum" : 100,
					"presentation" : 1,
					"minimum" : 20,
					"background" : 0,
					"triscale" : 1.0,
					"mouseup" : 0,
					"numoutlets" : 2,
					"bgcolor" : [ 1.0, 1.0, 1.0, 1.0 ]
				}

			}
, 			{
				"box" : 				{
					"maxclass" : "number",
					"fontname" : "Arial",
					"outlettype" : [ "int", "bang" ],
					"ignoreclick" : 0,
					"htricolor" : [ 0.87, 0.82, 0.24, 1.0 ],
					"outputonclick" : 0,
					"hidden" : 0,
					"bordercolor" : [ 0.5, 0.5, 0.5, 1.0 ],
					"id" : "obj-54",
					"textcolor" : [ 0.0, 0.0, 0.0, 1.0 ],
					"presentation_rect" : [ 0.0, 0.0, 0.0, 0.0 ],
					"hbgcolor" : [ 0.0, 0.0, 0.0, 1.0 ],
					"format" : 0,
					"tricolor" : [ 0.75, 0.75, 0.75, 1.0 ],
					"fontface" : 0,
					"triangle" : 1,
					"fontsize" : 10.0,
					"htextcolor" : [ 1.0, 1.0, 1.0, 1.0 ],
					"cantchange" : 0,
					"numinlets" : 1,
					"patching_rect" : [ 525.0, 645.0, 50.0, 18.0 ],
					"maximum" : "<none>",
					"presentation" : 0,
					"minimum" : "<none>",
					"background" : 0,
					"triscale" : 1.0,
					"mouseup" : 0,
					"numoutlets" : 2,
					"bgcolor" : [ 1.0, 1.0, 1.0, 1.0 ]
				}

			}
, 			{
				"box" : 				{
					"maxclass" : "number",
					"fontname" : "Arial",
					"outlettype" : [ "int", "bang" ],
					"ignoreclick" : 0,
					"htricolor" : [ 0.87, 0.82, 0.24, 1.0 ],
					"outputonclick" : 0,
					"hidden" : 0,
					"bordercolor" : [ 0.5, 0.5, 0.5, 1.0 ],
					"id" : "obj-53",
					"textcolor" : [ 0.0, 0.0, 0.0, 1.0 ],
					"presentation_rect" : [ 0.0, 0.0, 0.0, 0.0 ],
					"hbgcolor" : [ 0.0, 0.0, 0.0, 1.0 ],
					"format" : 0,
					"tricolor" : [ 0.75, 0.75, 0.75, 1.0 ],
					"fontface" : 0,
					"triangle" : 1,
					"fontsize" : 10.0,
					"htextcolor" : [ 1.0, 1.0, 1.0, 1.0 ],
					"cantchange" : 0,
					"numinlets" : 1,
					"patching_rect" : [ 390.0, 645.0, 50.0, 18.0 ],
					"maximum" : "<none>",
					"presentation" : 0,
					"minimum" : "<none>",
					"background" : 0,
					"triscale" : 1.0,
					"mouseup" : 0,
					"numoutlets" : 2,
					"bgcolor" : [ 1.0, 1.0, 1.0, 1.0 ]
				}

			}
, 			{
				"box" : 				{
					"maxclass" : "number",
					"fontname" : "Arial",
					"outlettype" : [ "int", "bang" ],
					"ignoreclick" : 0,
					"htricolor" : [ 0.87, 0.82, 0.24, 1.0 ],
					"outputonclick" : 0,
					"hidden" : 0,
					"bordercolor" : [ 0.5, 0.5, 0.5, 1.0 ],
					"id" : "obj-51",
					"textcolor" : [ 0.0, 0.0, 0.0, 1.0 ],
					"presentation_rect" : [ 0.0, 0.0, 0.0, 0.0 ],
					"hbgcolor" : [ 0.0, 0.0, 0.0, 1.0 ],
					"format" : 0,
					"tricolor" : [ 0.75, 0.75, 0.75, 1.0 ],
					"fontface" : 0,
					"triangle" : 1,
					"fontsize" : 10.0,
					"htextcolor" : [ 1.0, 1.0, 1.0, 1.0 ],
					"cantchange" : 0,
					"numinlets" : 1,
					"patching_rect" : [ 255.0, 645.0, 50.0, 18.0 ],
					"maximum" : "<none>",
					"presentation" : 0,
					"minimum" : "<none>",
					"background" : 0,
					"triscale" : 1.0,
					"mouseup" : 0,
					"numoutlets" : 2,
					"bgcolor" : [ 1.0, 1.0, 1.0, 1.0 ]
				}

			}
, 			{
				"box" : 				{
					"maxclass" : "message",
					"text" : "1000",
					"bgcolor2" : [ 0.867, 0.867, 0.867, 1.0 ],
					"fontname" : "Arial",
					"outlettype" : [ "" ],
					"ignoreclick" : 0,
					"gradient" : 0,
					"hidden" : 0,
					"id" : "obj-50",
					"textcolor" : [ 0.0, 0.0, 0.0, 1.0 ],
					"presentation_rect" : [ 0.0, 0.0, 0.0, 0.0 ],
					"fontface" : 0,
					"fontsize" : 10.0,
					"numinlets" : 2,
					"patching_rect" : [ 635.0, 384.0, 33.0, 16.0 ],
					"presentation" : 0,
					"background" : 0,
					"numoutlets" : 1,
					"bgcolor" : [ 0.867, 0.867, 0.867, 1.0 ]
				}

			}
, 			{
				"box" : 				{
					"maxclass" : "message",
					"text" : "W",
					"bgcolor2" : [ 0.867, 0.867, 0.867, 1.0 ],
					"fontname" : "Arial",
					"outlettype" : [ "" ],
					"ignoreclick" : 0,
					"gradient" : 0,
					"hidden" : 0,
					"id" : "obj-49",
					"textcolor" : [ 0.0, 0.0, 0.0, 1.0 ],
					"presentation_rect" : [ 0.0, 0.0, 0.0, 0.0 ],
					"fontface" : 0,
					"fontsize" : 10.0,
					"numinlets" : 2,
					"patching_rect" : [ 255.0, 795.0, 50.0, 16.0 ],
					"presentation" : 0,
					"background" : 0,
					"numoutlets" : 1,
					"bgcolor" : [ 0.867, 0.867, 0.867, 1.0 ]
				}

			}
, 			{
				"box" : 				{
					"maxclass" : "newobj",
					"text" : "itoa",
					"fontname" : "Arial",
					"outlettype" : [ "int" ],
					"ignoreclick" : 0,
					"hidden" : 0,
					"id" : "obj-48",
					"textcolor" : [ 0.0, 0.0, 0.0, 1.0 ],
					"presentation_rect" : [ 0.0, 0.0, 0.0, 0.0 ],
					"fontface" : 0,
					"fontsize" : 10.0,
					"numinlets" : 3,
					"patching_rect" : [ 255.0, 765.0, 46.0, 18.0 ],
					"presentation" : 0,
					"background" : 0,
					"color" : [ 0.8, 0.84, 0.71, 1.0 ],
					"numoutlets" : 1,
					"bgcolor" : [ 1.0, 1.0, 1.0, 1.0 ]
				}

			}
, 			{
				"box" : 				{
					"maxclass" : "button",
					"outlettype" : [ "bang" ],
					"ignoreclick" : 0,
					"fgcolor" : [ 1.0, 1.0, 1.0, 1.0 ],
					"blinkcolor" : [ 1.0, 0.890196, 0.090196, 1.0 ],
					"hidden" : 0,
					"id" : "obj-29",
					"outlinecolor" : [ 0.71328, 0.71328, 0.71328, 1.0 ],
					"presentation_rect" : [ 330.0, 210.0, 78.0, 78.0 ],
					"numinlets" : 1,
					"patching_rect" : [ 525.0, 495.0, 78.0, 78.0 ],
					"presentation" : 1,
					"background" : 0,
					"numoutlets" : 1,
					"bgcolor" : [ 0.91328, 0.91328, 0.91328, 0.75 ]
				}

			}
, 			{
				"box" : 				{
					"maxclass" : "message",
					"text" : "0",
					"bgcolor2" : [ 0.867, 0.867, 0.867, 1.0 ],
					"fontname" : "Arial",
					"outlettype" : [ "" ],
					"ignoreclick" : 0,
					"gradient" : 0,
					"hidden" : 0,
					"id" : "obj-30",
					"textcolor" : [ 0.0, 0.0, 0.0, 1.0 ],
					"presentation_rect" : [ 0.0, 0.0, 0.0, 0.0 ],
					"fontface" : 0,
					"fontsize" : 10.0,
					"numinlets" : 2,
					"patching_rect" : [ 525.0, 615.0, 32.5, 16.0 ],
					"presentation" : 0,
					"background" : 0,
					"numoutlets" : 1,
					"bgcolor" : [ 0.867, 0.867, 0.867, 1.0 ]
				}

			}
, 			{
				"box" : 				{
					"maxclass" : "message",
					"text" : "1",
					"bgcolor2" : [ 0.867, 0.867, 0.867, 1.0 ],
					"fontname" : "Arial",
					"outlettype" : [ "" ],
					"ignoreclick" : 0,
					"gradient" : 0,
					"hidden" : 0,
					"id" : "obj-31",
					"textcolor" : [ 0.0, 0.0, 0.0, 1.0 ],
					"presentation_rect" : [ 0.0, 0.0, 0.0, 0.0 ],
					"fontface" : 0,
					"fontsize" : 10.0,
					"numinlets" : 2,
					"patching_rect" : [ 525.0, 465.0, 32.5, 16.0 ],
					"presentation" : 0,
					"background" : 0,
					"numoutlets" : 1,
					"bgcolor" : [ 0.867, 0.867, 0.867, 1.0 ]
				}

			}
, 			{
				"box" : 				{
					"maxclass" : "newobj",
					"text" : "delay 100",
					"fontname" : "Arial",
					"outlettype" : [ "bang" ],
					"ignoreclick" : 0,
					"hidden" : 0,
					"id" : "obj-32",
					"textcolor" : [ 0.0, 0.0, 0.0, 1.0 ],
					"presentation_rect" : [ 0.0, 0.0, 0.0, 0.0 ],
					"fontface" : 0,
					"fontsize" : 10.0,
					"numinlets" : 2,
					"patching_rect" : [ 525.0, 585.0, 54.0, 18.0 ],
					"presentation" : 0,
					"background" : 0,
					"color" : [ 0.8, 0.84, 0.71, 1.0 ],
					"numoutlets" : 1,
					"bgcolor" : [ 1.0, 1.0, 1.0, 1.0 ]
				}

			}
, 			{
				"box" : 				{
					"maxclass" : "newobj",
					"text" : "* 25",
					"fontname" : "Arial",
					"outlettype" : [ "int" ],
					"ignoreclick" : 0,
					"hidden" : 0,
					"id" : "obj-34",
					"textcolor" : [ 0.0, 0.0, 0.0, 1.0 ],
					"presentation_rect" : [ 0.0, 0.0, 0.0, 0.0 ],
					"fontface" : 0,
					"fontsize" : 10.0,
					"numinlets" : 2,
					"patching_rect" : [ 525.0, 405.0, 32.5, 18.0 ],
					"presentation" : 0,
					"background" : 0,
					"color" : [ 0.8, 0.84, 0.71, 1.0 ],
					"numoutlets" : 1,
					"bgcolor" : [ 1.0, 1.0, 1.0, 1.0 ]
				}

			}
, 			{
				"box" : 				{
					"maxclass" : "newobj",
					"text" : "metroQU",
					"fontname" : "Arial",
					"outlettype" : [ "bang" ],
					"ignoreclick" : 0,
					"hidden" : 0,
					"id" : "obj-36",
					"textcolor" : [ 0.0, 0.0, 0.0, 1.0 ],
					"presentation_rect" : [ 0.0, 0.0, 0.0, 0.0 ],
					"fontface" : 0,
					"fontsize" : 10.0,
					"numinlets" : 1,
					"patching_rect" : [ 525.0, 435.0, 51.0, 18.0 ],
					"presentation" : 0,
					"background" : 0,
					"color" : [ 0.8, 0.84, 0.71, 1.0 ],
					"numoutlets" : 1,
					"bgcolor" : [ 1.0, 1.0, 1.0, 1.0 ]
				}

			}
, 			{
				"box" : 				{
					"maxclass" : "button",
					"outlettype" : [ "bang" ],
					"ignoreclick" : 0,
					"fgcolor" : [ 1.0, 1.0, 1.0, 1.0 ],
					"blinkcolor" : [ 1.0, 0.890196, 0.090196, 1.0 ],
					"hidden" : 0,
					"id" : "obj-37",
					"outlinecolor" : [ 0.71328, 0.71328, 0.71328, 1.0 ],
					"presentation_rect" : [ 225.0, 210.0, 78.0, 78.0 ],
					"numinlets" : 1,
					"patching_rect" : [ 390.0, 495.0, 78.0, 78.0 ],
					"presentation" : 1,
					"background" : 0,
					"numoutlets" : 1,
					"bgcolor" : [ 0.91328, 0.91328, 0.91328, 0.75 ]
				}

			}
, 			{
				"box" : 				{
					"maxclass" : "message",
					"text" : "0",
					"bgcolor2" : [ 0.867, 0.867, 0.867, 1.0 ],
					"fontname" : "Arial",
					"outlettype" : [ "" ],
					"ignoreclick" : 0,
					"gradient" : 0,
					"hidden" : 0,
					"id" : "obj-38",
					"textcolor" : [ 0.0, 0.0, 0.0, 1.0 ],
					"presentation_rect" : [ 0.0, 0.0, 0.0, 0.0 ],
					"fontface" : 0,
					"fontsize" : 10.0,
					"numinlets" : 2,
					"patching_rect" : [ 390.0, 615.0, 32.5, 16.0 ],
					"presentation" : 0,
					"background" : 0,
					"numoutlets" : 1,
					"bgcolor" : [ 0.867, 0.867, 0.867, 1.0 ]
				}

			}
, 			{
				"box" : 				{
					"maxclass" : "message",
					"text" : "1",
					"bgcolor2" : [ 0.867, 0.867, 0.867, 1.0 ],
					"fontname" : "Arial",
					"outlettype" : [ "" ],
					"ignoreclick" : 0,
					"gradient" : 0,
					"hidden" : 0,
					"id" : "obj-39",
					"textcolor" : [ 0.0, 0.0, 0.0, 1.0 ],
					"presentation_rect" : [ 0.0, 0.0, 0.0, 0.0 ],
					"fontface" : 0,
					"fontsize" : 10.0,
					"numinlets" : 2,
					"patching_rect" : [ 390.0, 465.0, 32.5, 16.0 ],
					"presentation" : 0,
					"background" : 0,
					"numoutlets" : 1,
					"bgcolor" : [ 0.867, 0.867, 0.867, 1.0 ]
				}

			}
, 			{
				"box" : 				{
					"maxclass" : "newobj",
					"text" : "delay 100",
					"fontname" : "Arial",
					"outlettype" : [ "bang" ],
					"ignoreclick" : 0,
					"hidden" : 0,
					"id" : "obj-44",
					"textcolor" : [ 0.0, 0.0, 0.0, 1.0 ],
					"presentation_rect" : [ 0.0, 0.0, 0.0, 0.0 ],
					"fontface" : 0,
					"fontsize" : 10.0,
					"numinlets" : 2,
					"patching_rect" : [ 390.0, 585.0, 54.0, 18.0 ],
					"presentation" : 0,
					"background" : 0,
					"color" : [ 0.8, 0.84, 0.71, 1.0 ],
					"numoutlets" : 1,
					"bgcolor" : [ 1.0, 1.0, 1.0, 1.0 ]
				}

			}
, 			{
				"box" : 				{
					"maxclass" : "newobj",
					"text" : "* 25",
					"fontname" : "Arial",
					"outlettype" : [ "int" ],
					"ignoreclick" : 0,
					"hidden" : 0,
					"id" : "obj-46",
					"textcolor" : [ 0.0, 0.0, 0.0, 1.0 ],
					"presentation_rect" : [ 0.0, 0.0, 0.0, 0.0 ],
					"fontface" : 0,
					"fontsize" : 10.0,
					"numinlets" : 2,
					"patching_rect" : [ 390.0, 405.0, 32.5, 18.0 ],
					"presentation" : 0,
					"background" : 0,
					"color" : [ 0.8, 0.84, 0.71, 1.0 ],
					"numoutlets" : 1,
					"bgcolor" : [ 1.0, 1.0, 1.0, 1.0 ]
				}

			}
, 			{
				"box" : 				{
					"maxclass" : "newobj",
					"text" : "metroQU",
					"fontname" : "Arial",
					"outlettype" : [ "bang" ],
					"ignoreclick" : 0,
					"hidden" : 0,
					"id" : "obj-47",
					"textcolor" : [ 0.0, 0.0, 0.0, 1.0 ],
					"presentation_rect" : [ 0.0, 0.0, 0.0, 0.0 ],
					"fontface" : 0,
					"fontsize" : 10.0,
					"numinlets" : 1,
					"patching_rect" : [ 390.0, 435.0, 51.0, 18.0 ],
					"presentation" : 0,
					"background" : 0,
					"color" : [ 0.8, 0.84, 0.71, 1.0 ],
					"numoutlets" : 1,
					"bgcolor" : [ 1.0, 1.0, 1.0, 1.0 ]
				}

			}
, 			{
				"box" : 				{
					"maxclass" : "button",
					"outlettype" : [ "bang" ],
					"ignoreclick" : 0,
					"fgcolor" : [ 1.0, 1.0, 1.0, 1.0 ],
					"blinkcolor" : [ 1.0, 0.890196, 0.090196, 1.0 ],
					"hidden" : 0,
					"id" : "obj-14",
					"outlinecolor" : [ 0.71328, 0.71328, 0.71328, 1.0 ],
					"presentation_rect" : [ 120.0, 210.0, 78.0, 78.0 ],
					"numinlets" : 1,
					"patching_rect" : [ 255.0, 495.0, 78.0, 78.0 ],
					"presentation" : 1,
					"background" : 0,
					"numoutlets" : 1,
					"bgcolor" : [ 0.91328, 0.91328, 0.91328, 0.75 ]
				}

			}
, 			{
				"box" : 				{
					"maxclass" : "message",
					"text" : "0",
					"bgcolor2" : [ 0.867, 0.867, 0.867, 1.0 ],
					"fontname" : "Arial",
					"outlettype" : [ "" ],
					"ignoreclick" : 0,
					"gradient" : 0,
					"hidden" : 0,
					"id" : "obj-20",
					"textcolor" : [ 0.0, 0.0, 0.0, 1.0 ],
					"presentation_rect" : [ 0.0, 0.0, 0.0, 0.0 ],
					"fontface" : 0,
					"fontsize" : 10.0,
					"numinlets" : 2,
					"patching_rect" : [ 255.0, 615.0, 32.5, 16.0 ],
					"presentation" : 0,
					"background" : 0,
					"numoutlets" : 1,
					"bgcolor" : [ 0.867, 0.867, 0.867, 1.0 ]
				}

			}
, 			{
				"box" : 				{
					"maxclass" : "message",
					"text" : "1",
					"bgcolor2" : [ 0.867, 0.867, 0.867, 1.0 ],
					"fontname" : "Arial",
					"outlettype" : [ "" ],
					"ignoreclick" : 0,
					"gradient" : 0,
					"hidden" : 0,
					"id" : "obj-21",
					"textcolor" : [ 0.0, 0.0, 0.0, 1.0 ],
					"presentation_rect" : [ 0.0, 0.0, 0.0, 0.0 ],
					"fontface" : 0,
					"fontsize" : 10.0,
					"numinlets" : 2,
					"patching_rect" : [ 255.0, 465.0, 32.5, 16.0 ],
					"presentation" : 0,
					"background" : 0,
					"numoutlets" : 1,
					"bgcolor" : [ 0.867, 0.867, 0.867, 1.0 ]
				}

			}
, 			{
				"box" : 				{
					"maxclass" : "newobj",
					"text" : "delay 100",
					"fontname" : "Arial",
					"outlettype" : [ "bang" ],
					"ignoreclick" : 0,
					"hidden" : 0,
					"id" : "obj-22",
					"textcolor" : [ 0.0, 0.0, 0.0, 1.0 ],
					"presentation_rect" : [ 0.0, 0.0, 0.0, 0.0 ],
					"fontface" : 0,
					"fontsize" : 10.0,
					"numinlets" : 2,
					"patching_rect" : [ 255.0, 585.0, 54.0, 18.0 ],
					"presentation" : 0,
					"background" : 0,
					"color" : [ 0.8, 0.84, 0.71, 1.0 ],
					"numoutlets" : 1,
					"bgcolor" : [ 1.0, 1.0, 1.0, 1.0 ]
				}

			}
, 			{
				"box" : 				{
					"maxclass" : "newobj",
					"text" : "* 25",
					"fontname" : "Arial",
					"outlettype" : [ "int" ],
					"ignoreclick" : 0,
					"hidden" : 0,
					"id" : "obj-24",
					"textcolor" : [ 0.0, 0.0, 0.0, 1.0 ],
					"presentation_rect" : [ 0.0, 0.0, 0.0, 0.0 ],
					"fontface" : 0,
					"fontsize" : 10.0,
					"numinlets" : 2,
					"patching_rect" : [ 255.0, 405.0, 32.5, 18.0 ],
					"presentation" : 0,
					"background" : 0,
					"color" : [ 0.8, 0.84, 0.71, 1.0 ],
					"numoutlets" : 1,
					"bgcolor" : [ 1.0, 1.0, 1.0, 1.0 ]
				}

			}
, 			{
				"box" : 				{
					"maxclass" : "newobj",
					"text" : "metroQU",
					"fontname" : "Arial",
					"outlettype" : [ "bang" ],
					"ignoreclick" : 0,
					"hidden" : 0,
					"id" : "obj-27",
					"textcolor" : [ 0.0, 0.0, 0.0, 1.0 ],
					"presentation_rect" : [ 0.0, 0.0, 0.0, 0.0 ],
					"fontface" : 0,
					"fontsize" : 10.0,
					"numinlets" : 1,
					"patching_rect" : [ 255.0, 435.0, 51.0, 18.0 ],
					"presentation" : 0,
					"background" : 0,
					"color" : [ 0.8, 0.84, 0.71, 1.0 ],
					"numoutlets" : 1,
					"bgcolor" : [ 1.0, 1.0, 1.0, 1.0 ]
				}

			}
, 			{
				"box" : 				{
					"maxclass" : "number",
					"fontname" : "Arial",
					"outlettype" : [ "int", "bang" ],
					"ignoreclick" : 0,
					"htricolor" : [ 0.87, 0.82, 0.24, 1.0 ],
					"outputonclick" : 0,
					"hidden" : 0,
					"bordercolor" : [ 0.5, 0.5, 0.5, 1.0 ],
					"id" : "obj-3",
					"textcolor" : [ 0.0, 0.0, 0.0, 1.0 ],
					"presentation_rect" : [ 330.0, 150.0, 99.0, 48.0 ],
					"hbgcolor" : [ 0.0, 0.0, 0.0, 1.0 ],
					"format" : 0,
					"tricolor" : [ 0.75, 0.75, 0.75, 1.0 ],
					"fontface" : 0,
					"triangle" : 1,
					"fontsize" : 36.0,
					"htextcolor" : [ 1.0, 1.0, 1.0, 1.0 ],
					"cantchange" : 0,
					"numinlets" : 1,
					"patching_rect" : [ 525.0, 315.0, 99.0, 48.0 ],
					"maximum" : "<none>",
					"presentation" : 1,
					"minimum" : "<none>",
					"background" : 0,
					"triscale" : 1.0,
					"mouseup" : 0,
					"numoutlets" : 2,
					"bgcolor" : [ 1.0, 1.0, 1.0, 1.0 ]
				}

			}
, 			{
				"box" : 				{
					"maxclass" : "number",
					"fontname" : "Arial",
					"outlettype" : [ "int", "bang" ],
					"ignoreclick" : 0,
					"htricolor" : [ 0.87, 0.82, 0.24, 1.0 ],
					"outputonclick" : 0,
					"hidden" : 0,
					"bordercolor" : [ 0.5, 0.5, 0.5, 1.0 ],
					"id" : "obj-13",
					"textcolor" : [ 0.0, 0.0, 0.0, 1.0 ],
					"presentation_rect" : [ 225.0, 150.0, 99.0, 48.0 ],
					"hbgcolor" : [ 0.0, 0.0, 0.0, 1.0 ],
					"format" : 0,
					"tricolor" : [ 0.75, 0.75, 0.75, 1.0 ],
					"fontface" : 0,
					"triangle" : 1,
					"fontsize" : 36.0,
					"htextcolor" : [ 1.0, 1.0, 1.0, 1.0 ],
					"cantchange" : 0,
					"numinlets" : 1,
					"patching_rect" : [ 390.0, 315.0, 99.0, 48.0 ],
					"maximum" : "<none>",
					"presentation" : 1,
					"minimum" : "<none>",
					"background" : 0,
					"triscale" : 1.0,
					"mouseup" : 0,
					"numoutlets" : 2,
					"bgcolor" : [ 1.0, 1.0, 1.0, 1.0 ]
				}

			}
, 			{
				"box" : 				{
					"maxclass" : "number",
					"fontname" : "Arial",
					"outlettype" : [ "int", "bang" ],
					"ignoreclick" : 0,
					"htricolor" : [ 0.87, 0.82, 0.24, 1.0 ],
					"outputonclick" : 0,
					"hidden" : 0,
					"bordercolor" : [ 0.5, 0.5, 0.5, 1.0 ],
					"id" : "obj-2",
					"textcolor" : [ 0.0, 0.0, 0.0, 1.0 ],
					"presentation_rect" : [ 0.0, 0.0, 0.0, 0.0 ],
					"hbgcolor" : [ 0.0, 0.0, 0.0, 1.0 ],
					"format" : 0,
					"tricolor" : [ 0.75, 0.75, 0.75, 1.0 ],
					"fontface" : 0,
					"triangle" : 1,
					"fontsize" : 10.0,
					"htextcolor" : [ 1.0, 1.0, 1.0, 1.0 ],
					"cantchange" : 0,
					"numinlets" : 1,
					"patching_rect" : [ 254.0, 734.0, 50.0, 18.0 ],
					"maximum" : "<none>",
					"presentation" : 0,
					"minimum" : "<none>",
					"background" : 0,
					"triscale" : 1.0,
					"mouseup" : 0,
					"numoutlets" : 2,
					"bgcolor" : [ 1.0, 1.0, 1.0, 1.0 ]
				}

			}
, 			{
				"box" : 				{
					"maxclass" : "button",
					"outlettype" : [ "bang" ],
					"ignoreclick" : 0,
					"fgcolor" : [ 1.0, 1.0, 1.0, 1.0 ],
					"blinkcolor" : [ 1.0, 0.890196, 0.090196, 1.0 ],
					"hidden" : 0,
					"id" : "obj-45",
					"outlinecolor" : [ 0.71328, 0.71328, 0.71328, 1.0 ],
					"presentation_rect" : [ 15.0, 210.0, 78.0, 78.0 ],
					"numinlets" : 1,
					"patching_rect" : [ 120.0, 495.0, 78.0, 78.0 ],
					"presentation" : 1,
					"background" : 0,
					"numoutlets" : 1,
					"bgcolor" : [ 0.91328, 0.91328, 0.91328, 0.75 ]
				}

			}
, 			{
				"box" : 				{
					"maxclass" : "message",
					"text" : "0",
					"bgcolor2" : [ 0.867, 0.867, 0.867, 1.0 ],
					"fontname" : "Arial",
					"outlettype" : [ "" ],
					"ignoreclick" : 0,
					"gradient" : 0,
					"hidden" : 0,
					"id" : "obj-43",
					"textcolor" : [ 0.0, 0.0, 0.0, 1.0 ],
					"presentation_rect" : [ 0.0, 0.0, 0.0, 0.0 ],
					"fontface" : 0,
					"fontsize" : 10.0,
					"numinlets" : 2,
					"patching_rect" : [ 120.0, 615.0, 32.5, 16.0 ],
					"presentation" : 0,
					"background" : 0,
					"numoutlets" : 1,
					"bgcolor" : [ 0.867, 0.867, 0.867, 1.0 ]
				}

			}
, 			{
				"box" : 				{
					"maxclass" : "message",
					"text" : "1",
					"bgcolor2" : [ 0.867, 0.867, 0.867, 1.0 ],
					"fontname" : "Arial",
					"outlettype" : [ "" ],
					"ignoreclick" : 0,
					"gradient" : 0,
					"hidden" : 0,
					"id" : "obj-42",
					"textcolor" : [ 0.0, 0.0, 0.0, 1.0 ],
					"presentation_rect" : [ 0.0, 0.0, 0.0, 0.0 ],
					"fontface" : 0,
					"fontsize" : 10.0,
					"numinlets" : 2,
					"patching_rect" : [ 120.0, 465.0, 32.5, 16.0 ],
					"presentation" : 0,
					"background" : 0,
					"numoutlets" : 1,
					"bgcolor" : [ 0.867, 0.867, 0.867, 1.0 ]
				}

			}
, 			{
				"box" : 				{
					"maxclass" : "newobj",
					"text" : "delay 50",
					"fontname" : "Arial",
					"outlettype" : [ "bang" ],
					"ignoreclick" : 0,
					"hidden" : 0,
					"id" : "obj-33",
					"textcolor" : [ 0.0, 0.0, 0.0, 1.0 ],
					"presentation_rect" : [ 0.0, 0.0, 0.0, 0.0 ],
					"fontface" : 0,
					"fontsize" : 10.0,
					"numinlets" : 2,
					"patching_rect" : [ 120.0, 585.0, 48.0, 18.0 ],
					"presentation" : 0,
					"background" : 0,
					"color" : [ 0.8, 0.84, 0.71, 1.0 ],
					"numoutlets" : 1,
					"bgcolor" : [ 1.0, 1.0, 1.0, 1.0 ]
				}

			}
, 			{
				"box" : 				{
					"maxclass" : "newobj",
					"text" : "serial h 115200",
					"fontname" : "Arial",
					"outlettype" : [ "int", "" ],
					"ignoreclick" : 0,
					"hidden" : 0,
					"id" : "obj-28",
					"textcolor" : [ 0.0, 0.0, 0.0, 1.0 ],
					"presentation_rect" : [ 0.0, 0.0, 0.0, 0.0 ],
					"fontface" : 0,
					"fontsize" : 10.0,
					"numinlets" : 1,
					"patching_rect" : [ 120.0, 753.0, 78.0, 18.0 ],
					"presentation" : 0,
					"background" : 0,
					"color" : [ 0.8, 0.84, 0.71, 1.0 ],
					"numoutlets" : 2,
					"bgcolor" : [ 1.0, 1.0, 1.0, 1.0 ]
				}

			}
, 			{
				"box" : 				{
					"maxclass" : "newobj",
					"text" : "fourLEDonoffSerialSetup",
					"fontname" : "Arial",
					"outlettype" : [ "" ],
					"ignoreclick" : 0,
					"hidden" : 0,
					"id" : "obj-41",
					"textcolor" : [ 0.0, 0.0, 0.0, 1.0 ],
					"presentation_rect" : [ 0.0, 0.0, 0.0, 0.0 ],
					"fontface" : 0,
					"fontsize" : 10.0,
					"numinlets" : 10,
					"patching_rect" : [ 120.0, 705.0, 121.0, 18.0 ],
					"presentation" : 0,
					"background" : 0,
					"color" : [ 0.8, 0.84, 0.71, 1.0 ],
					"numoutlets" : 1,
					"bgcolor" : [ 1.0, 1.0, 1.0, 1.0 ]
				}

			}
, 			{
				"box" : 				{
					"maxclass" : "message",
					"text" : "print",
					"bgcolor2" : [ 0.867, 0.867, 0.867, 1.0 ],
					"fontname" : "Arial",
					"outlettype" : [ "" ],
					"ignoreclick" : 0,
					"gradient" : 0,
					"hidden" : 0,
					"id" : "obj-40",
					"textcolor" : [ 0.0, 0.0, 0.0, 1.0 ],
					"presentation_rect" : [ 390.0, 15.0, 32.5, 16.0 ],
					"fontface" : 0,
					"fontsize" : 10.0,
					"numinlets" : 2,
					"patching_rect" : [ 253.0, 59.0, 32.5, 16.0 ],
					"presentation" : 1,
					"background" : 0,
					"numoutlets" : 1,
					"bgcolor" : [ 0.867, 0.867, 0.867, 1.0 ]
				}

			}
, 			{
				"box" : 				{
					"maxclass" : "comment",
					"text" : "Rear Sensor",
					"fontname" : "Arial",
					"ignoreclick" : 1,
					"hidden" : 0,
					"id" : "obj-35",
					"underline" : 0,
					"textcolor" : [ 0.0, 0.0, 0.0, 1.0 ],
					"presentation_rect" : [ 330.0, 120.0, 79.0, 20.0 ],
					"frgb" : [ 0.0, 0.0, 0.0, 1.0 ],
					"fontface" : 0,
					"fontsize" : 11.595187,
					"numinlets" : 1,
					"patching_rect" : [ 525.0, 375.0, 79.0, 20.0 ],
					"presentation" : 1,
					"background" : 0,
					"numoutlets" : 0,
					"bgcolor" : [ 1.0, 1.0, 1.0, 0.0 ]
				}

			}
, 			{
				"box" : 				{
					"maxclass" : "comment",
					"text" : "This part takes the sensor data and converts it into lights turning on and off.",
					"linecount" : 4,
					"fontname" : "Arial",
					"ignoreclick" : 1,
					"hidden" : 0,
					"id" : "obj-26",
					"underline" : 0,
					"textcolor" : [ 0.0, 0.0, 0.0, 1.0 ],
					"presentation_rect" : [ 0.0, 0.0, 0.0, 0.0 ],
					"frgb" : [ 0.0, 0.0, 0.0, 1.0 ],
					"fontface" : 0,
					"fontsize" : 10.0,
					"numinlets" : 1,
					"patching_rect" : [ 12.0, 459.0, 103.0, 52.0 ],
					"presentation" : 0,
					"background" : 0,
					"numoutlets" : 0,
					"bgcolor" : [ 1.0, 1.0, 1.0, 0.0 ]
				}

			}
, 			{
				"box" : 				{
					"maxclass" : "comment",
					"text" : "This part takes in serial data and makes it make sense",
					"linecount" : 2,
					"fontname" : "Arial",
					"ignoreclick" : 1,
					"hidden" : 0,
					"id" : "obj-25",
					"underline" : 0,
					"textcolor" : [ 0.0, 0.0, 0.0, 1.0 ],
					"presentation_rect" : [ 0.0, 0.0, 0.0, 0.0 ],
					"frgb" : [ 0.0, 0.0, 0.0, 1.0 ],
					"fontface" : 0,
					"fontsize" : 10.0,
					"numinlets" : 1,
					"patching_rect" : [ 191.0, 146.0, 150.0, 29.0 ],
					"presentation" : 0,
					"background" : 0,
					"numoutlets" : 0,
					"bgcolor" : [ 1.0, 1.0, 1.0, 0.0 ]
				}

			}
, 			{
				"box" : 				{
					"maxclass" : "comment",
					"text" : "Today I got 3 working quickly and reliably.  I figured out that the metro only updates on the next tick.  I swapped that over to a metroQU which resets everytime the delay changes.  This way the metro updates at about 1ms. so the change in pulse rate is almost immediate.  The drawback of this approach is that there is a pulse sent upon update, so a rapid update rate would result in a bunch of stray pulses.",
					"linecount" : 8,
					"fontname" : "Arial",
					"ignoreclick" : 1,
					"hidden" : 0,
					"id" : "obj-19",
					"underline" : 0,
					"textcolor" : [ 0.0, 0.0, 0.0, 1.0 ],
					"presentation_rect" : [ 0.0, 0.0, 0.0, 0.0 ],
					"frgb" : [ 0.0, 0.0, 0.0, 1.0 ],
					"fontface" : 0,
					"fontsize" : 10.0,
					"numinlets" : 1,
					"patching_rect" : [ 396.0, 87.0, 261.0, 98.0 ],
					"presentation" : 0,
					"background" : 0,
					"numoutlets" : 0,
					"bgcolor" : [ 1.0, 1.0, 1.0, 0.0 ]
				}

			}
, 			{
				"box" : 				{
					"maxclass" : "newobj",
					"text" : "* 20",
					"fontname" : "Arial",
					"outlettype" : [ "int" ],
					"ignoreclick" : 0,
					"hidden" : 0,
					"id" : "obj-57",
					"textcolor" : [ 0.0, 0.0, 0.0, 1.0 ],
					"presentation_rect" : [ 0.0, 0.0, 0.0, 0.0 ],
					"fontface" : 0,
					"fontsize" : 10.0,
					"numinlets" : 2,
					"patching_rect" : [ 120.0, 405.0, 32.5, 18.0 ],
					"presentation" : 0,
					"background" : 0,
					"color" : [ 0.8, 0.84, 0.71, 1.0 ],
					"numoutlets" : 1,
					"bgcolor" : [ 1.0, 1.0, 1.0, 1.0 ]
				}

			}
, 			{
				"box" : 				{
					"maxclass" : "newobj",
					"text" : "metroQU",
					"fontname" : "Arial",
					"outlettype" : [ "bang" ],
					"ignoreclick" : 0,
					"hidden" : 0,
					"id" : "obj-58",
					"textcolor" : [ 0.0, 0.0, 0.0, 1.0 ],
					"presentation_rect" : [ 0.0, 0.0, 0.0, 0.0 ],
					"fontface" : 0,
					"fontsize" : 10.0,
					"numinlets" : 1,
					"patching_rect" : [ 120.0, 435.0, 51.0, 18.0 ],
					"presentation" : 0,
					"background" : 0,
					"color" : [ 0.8, 0.84, 0.71, 1.0 ],
					"numoutlets" : 1,
					"bgcolor" : [ 1.0, 1.0, 1.0, 1.0 ]
				}

			}
, 			{
				"box" : 				{
					"maxclass" : "number",
					"fontname" : "Arial",
					"outlettype" : [ "int", "bang" ],
					"ignoreclick" : 0,
					"htricolor" : [ 0.87, 0.82, 0.24, 1.0 ],
					"outputonclick" : 0,
					"hidden" : 0,
					"bordercolor" : [ 0.5, 0.5, 0.5, 1.0 ],
					"id" : "obj-23",
					"textcolor" : [ 0.0, 0.0, 0.0, 1.0 ],
					"presentation_rect" : [ 0.0, 0.0, 0.0, 0.0 ],
					"hbgcolor" : [ 0.0, 0.0, 0.0, 1.0 ],
					"format" : 0,
					"tricolor" : [ 0.75, 0.75, 0.75, 1.0 ],
					"fontface" : 0,
					"triangle" : 1,
					"fontsize" : 11.595187,
					"htextcolor" : [ 1.0, 1.0, 1.0, 1.0 ],
					"cantchange" : 0,
					"numinlets" : 1,
					"patching_rect" : [ 120.0, 120.0, 50.0, 20.0 ],
					"maximum" : "<none>",
					"presentation" : 0,
					"minimum" : "<none>",
					"background" : 0,
					"triscale" : 1.0,
					"mouseup" : 0,
					"numoutlets" : 2,
					"bgcolor" : [ 1.0, 1.0, 1.0, 1.0 ]
				}

			}
, 			{
				"box" : 				{
					"maxclass" : "comment",
					"text" : "< start polling the serial port",
					"fontname" : "Arial",
					"ignoreclick" : 1,
					"hidden" : 0,
					"id" : "obj-18",
					"underline" : 0,
					"textcolor" : [ 0.0, 0.0, 0.0, 1.0 ],
					"presentation_rect" : [ 0.0, 0.0, 0.0, 0.0 ],
					"frgb" : [ 0.0, 0.0, 0.0, 1.0 ],
					"fontface" : 0,
					"fontsize" : 11.595187,
					"numinlets" : 1,
					"patching_rect" : [ 90.0, 30.0, 153.0, 20.0 ],
					"presentation" : 0,
					"background" : 0,
					"numoutlets" : 0,
					"bgcolor" : [ 1.0, 1.0, 1.0, 0.0 ]
				}

			}
, 			{
				"box" : 				{
					"maxclass" : "comment",
					"text" : "Hat Right",
					"fontname" : "Arial",
					"ignoreclick" : 1,
					"hidden" : 0,
					"id" : "obj-17",
					"underline" : 0,
					"textcolor" : [ 0.0, 0.0, 0.0, 1.0 ],
					"presentation_rect" : [ 225.0, 120.0, 79.0, 20.0 ],
					"frgb" : [ 0.0, 0.0, 0.0, 1.0 ],
					"fontface" : 0,
					"fontsize" : 11.595187,
					"numinlets" : 1,
					"patching_rect" : [ 390.0, 375.0, 79.0, 20.0 ],
					"presentation" : 1,
					"background" : 0,
					"numoutlets" : 0,
					"bgcolor" : [ 1.0, 1.0, 1.0, 0.0 ]
				}

			}
, 			{
				"box" : 				{
					"maxclass" : "comment",
					"text" : "Hat Left",
					"fontname" : "Arial",
					"ignoreclick" : 1,
					"hidden" : 0,
					"id" : "obj-16",
					"underline" : 0,
					"textcolor" : [ 0.0, 0.0, 0.0, 1.0 ],
					"presentation_rect" : [ 120.0, 120.0, 82.0, 20.0 ],
					"frgb" : [ 0.0, 0.0, 0.0, 1.0 ],
					"fontface" : 0,
					"fontsize" : 11.595187,
					"numinlets" : 1,
					"patching_rect" : [ 255.0, 375.0, 82.0, 20.0 ],
					"presentation" : 1,
					"background" : 0,
					"numoutlets" : 0,
					"bgcolor" : [ 1.0, 1.0, 1.0, 0.0 ]
				}

			}
, 			{
				"box" : 				{
					"maxclass" : "comment",
					"text" : "Front Sensor",
					"fontname" : "Arial",
					"ignoreclick" : 1,
					"hidden" : 0,
					"id" : "obj-15",
					"underline" : 0,
					"textcolor" : [ 0.0, 0.0, 0.0, 1.0 ],
					"presentation_rect" : [ 15.0, 120.0, 82.0, 20.0 ],
					"frgb" : [ 0.0, 0.0, 0.0, 1.0 ],
					"fontface" : 0,
					"fontsize" : 11.595187,
					"numinlets" : 1,
					"patching_rect" : [ 124.0, 374.0, 82.0, 20.0 ],
					"presentation" : 1,
					"background" : 0,
					"numoutlets" : 0,
					"bgcolor" : [ 1.0, 1.0, 1.0, 0.0 ]
				}

			}
, 			{
				"box" : 				{
					"maxclass" : "number",
					"fontname" : "Arial",
					"outlettype" : [ "int", "bang" ],
					"ignoreclick" : 0,
					"htricolor" : [ 0.87, 0.82, 0.24, 1.0 ],
					"outputonclick" : 0,
					"hidden" : 0,
					"bordercolor" : [ 0.5, 0.5, 0.5, 1.0 ],
					"id" : "obj-12",
					"textcolor" : [ 0.0, 0.0, 0.0, 1.0 ],
					"presentation_rect" : [ 120.0, 150.0, 99.0, 48.0 ],
					"hbgcolor" : [ 0.0, 0.0, 0.0, 1.0 ],
					"format" : 0,
					"tricolor" : [ 0.75, 0.75, 0.75, 1.0 ],
					"fontface" : 0,
					"triangle" : 1,
					"fontsize" : 36.0,
					"htextcolor" : [ 1.0, 1.0, 1.0, 1.0 ],
					"cantchange" : 0,
					"numinlets" : 1,
					"patching_rect" : [ 255.0, 315.0, 99.0, 48.0 ],
					"maximum" : "<none>",
					"presentation" : 1,
					"minimum" : "<none>",
					"background" : 0,
					"triscale" : 1.0,
					"mouseup" : 0,
					"numoutlets" : 2,
					"bgcolor" : [ 1.0, 1.0, 1.0, 1.0 ]
				}

			}
, 			{
				"box" : 				{
					"maxclass" : "number",
					"fontname" : "Arial",
					"outlettype" : [ "int", "bang" ],
					"ignoreclick" : 0,
					"htricolor" : [ 0.87, 0.82, 0.24, 1.0 ],
					"outputonclick" : 0,
					"hidden" : 0,
					"bordercolor" : [ 0.5, 0.5, 0.5, 1.0 ],
					"id" : "obj-11",
					"textcolor" : [ 0.0, 0.0, 0.0, 1.0 ],
					"presentation_rect" : [ 15.0, 150.0, 99.0, 48.0 ],
					"hbgcolor" : [ 0.0, 0.0, 0.0, 1.0 ],
					"format" : 0,
					"tricolor" : [ 0.75, 0.75, 0.75, 1.0 ],
					"fontface" : 0,
					"triangle" : 1,
					"fontsize" : 36.0,
					"htextcolor" : [ 1.0, 1.0, 1.0, 1.0 ],
					"cantchange" : 0,
					"numinlets" : 1,
					"patching_rect" : [ 120.0, 315.0, 99.0, 48.0 ],
					"maximum" : "<none>",
					"presentation" : 1,
					"minimum" : "<none>",
					"background" : 0,
					"triscale" : 1.0,
					"mouseup" : 0,
					"numoutlets" : 2,
					"bgcolor" : [ 1.0, 1.0, 1.0, 1.0 ]
				}

			}
, 			{
				"box" : 				{
					"maxclass" : "newobj",
					"text" : "unpack 0 0 0 0",
					"fontname" : "Arial",
					"outlettype" : [ "int", "int", "int", "int" ],
					"ignoreclick" : 0,
					"hidden" : 0,
					"id" : "obj-10",
					"textcolor" : [ 0.0, 0.0, 0.0, 1.0 ],
					"presentation_rect" : [ 0.0, 0.0, 0.0, 0.0 ],
					"fontface" : 0,
					"fontsize" : 11.595187,
					"numinlets" : 1,
					"patching_rect" : [ 120.0, 285.0, 424.0, 20.0 ],
					"presentation" : 0,
					"background" : 0,
					"color" : [ 0.8, 0.84, 0.71, 1.0 ],
					"numoutlets" : 4,
					"bgcolor" : [ 1.0, 1.0, 1.0, 1.0 ]
				}

			}
, 			{
				"box" : 				{
					"maxclass" : "newobj",
					"text" : "fromsymbol",
					"fontname" : "Arial",
					"outlettype" : [ "" ],
					"ignoreclick" : 0,
					"hidden" : 0,
					"id" : "obj-9",
					"textcolor" : [ 0.0, 0.0, 0.0, 1.0 ],
					"presentation_rect" : [ 0.0, 0.0, 0.0, 0.0 ],
					"fontface" : 0,
					"fontsize" : 11.595187,
					"numinlets" : 1,
					"patching_rect" : [ 120.0, 255.0, 70.0, 20.0 ],
					"presentation" : 0,
					"background" : 0,
					"color" : [ 0.356863, 0.768627, 0.0, 1.0 ],
					"numoutlets" : 1,
					"bgcolor" : [ 1.0, 1.0, 1.0, 1.0 ]
				}

			}
, 			{
				"box" : 				{
					"maxclass" : "newobj",
					"text" : "itoa",
					"fontname" : "Arial",
					"outlettype" : [ "int" ],
					"ignoreclick" : 0,
					"hidden" : 0,
					"id" : "obj-8",
					"textcolor" : [ 0.0, 0.0, 0.0, 1.0 ],
					"presentation_rect" : [ 0.0, 0.0, 0.0, 0.0 ],
					"fontface" : 0,
					"fontsize" : 11.595187,
					"numinlets" : 3,
					"patching_rect" : [ 120.0, 225.0, 46.0, 20.0 ],
					"presentation" : 0,
					"background" : 0,
					"color" : [ 0.356863, 0.768627, 0.0, 1.0 ],
					"numoutlets" : 1,
					"bgcolor" : [ 1.0, 1.0, 1.0, 1.0 ]
				}

			}
, 			{
				"box" : 				{
					"maxclass" : "newobj",
					"text" : "zl group 1000",
					"fontname" : "Arial",
					"outlettype" : [ "", "" ],
					"ignoreclick" : 0,
					"hidden" : 0,
					"id" : "obj-7",
					"textcolor" : [ 0.0, 0.0, 0.0, 1.0 ],
					"presentation_rect" : [ 0.0, 0.0, 0.0, 0.0 ],
					"fontface" : 0,
					"fontsize" : 11.595187,
					"numinlets" : 2,
					"patching_rect" : [ 120.0, 195.0, 81.0, 20.0 ],
					"presentation" : 0,
					"background" : 0,
					"color" : [ 0.8, 0.84, 0.71, 1.0 ],
					"numoutlets" : 2,
					"bgcolor" : [ 1.0, 1.0, 1.0, 1.0 ]
				}

			}
, 			{
				"box" : 				{
					"maxclass" : "toggle",
					"outlettype" : [ "int" ],
					"ignoreclick" : 0,
					"hidden" : 0,
					"bordercolor" : [ 0.5, 0.5, 0.5, 1.0 ],
					"checkedcolor" : [ 0.0, 0.0, 0.0, 1.0 ],
					"id" : "obj-6",
					"presentation_rect" : [ 15.0, 15.0, 91.0, 91.0 ],
					"numinlets" : 1,
					"patching_rect" : [ 60.0, 30.0, 20.0, 20.0 ],
					"presentation" : 1,
					"background" : 0,
					"numoutlets" : 1,
					"bgcolor" : [ 1.0, 1.0, 1.0, 1.0 ]
				}

			}
, 			{
				"box" : 				{
					"maxclass" : "newobj",
					"text" : "metro 50",
					"fontname" : "Arial",
					"outlettype" : [ "bang" ],
					"ignoreclick" : 0,
					"hidden" : 0,
					"id" : "obj-5",
					"textcolor" : [ 0.0, 0.0, 0.0, 1.0 ],
					"presentation_rect" : [ 0.0, 0.0, 0.0, 0.0 ],
					"fontface" : 0,
					"fontsize" : 11.595187,
					"numinlets" : 2,
					"patching_rect" : [ 60.0, 60.0, 56.0, 20.0 ],
					"presentation" : 0,
					"background" : 0,
					"color" : [ 0.8, 0.84, 0.71, 1.0 ],
					"numoutlets" : 1,
					"bgcolor" : [ 1.0, 1.0, 1.0, 1.0 ]
				}

			}
, 			{
				"box" : 				{
					"maxclass" : "newobj",
					"text" : "sel 13 10",
					"fontname" : "Arial",
					"outlettype" : [ "bang", "bang", "" ],
					"ignoreclick" : 0,
					"hidden" : 0,
					"id" : "obj-4",
					"textcolor" : [ 0.0, 0.0, 0.0, 1.0 ],
					"presentation_rect" : [ 0.0, 0.0, 0.0, 0.0 ],
					"fontface" : 0,
					"fontsize" : 11.595187,
					"numinlets" : 1,
					"patching_rect" : [ 120.0, 150.0, 58.0, 20.0 ],
					"presentation" : 0,
					"background" : 0,
					"color" : [ 0.8, 0.84, 0.71, 1.0 ],
					"numoutlets" : 3,
					"bgcolor" : [ 1.0, 1.0, 1.0, 1.0 ]
				}

			}
, 			{
				"box" : 				{
					"maxclass" : "newobj",
					"text" : "serial g 115200",
					"fontname" : "Arial",
					"outlettype" : [ "int", "" ],
					"ignoreclick" : 0,
					"hidden" : 0,
					"id" : "obj-1",
					"textcolor" : [ 0.0, 0.0, 0.0, 1.0 ],
					"presentation_rect" : [ 0.0, 0.0, 0.0, 0.0 ],
					"fontface" : 0,
					"fontsize" : 11.595187,
					"numinlets" : 1,
					"patching_rect" : [ 120.0, 90.0, 89.0, 20.0 ],
					"presentation" : 0,
					"background" : 0,
					"color" : [ 0.356863, 0.768627, 0.0, 1.0 ],
					"numoutlets" : 2,
					"bgcolor" : [ 1.0, 1.0, 1.0, 1.0 ]
				}

			}
 ],
		"lines" : [ 			{
				"patchline" : 				{
					"source" : [ "obj-41", 0 ],
					"destination" : [ "obj-28", 0 ],
					"hidden" : 0,
					"color" : [ 0.0, 0.0, 0.0, 1.0 ],
					"midpoints" : [  ]
				}

			}
, 			{
				"patchline" : 				{
					"source" : [ "obj-40", 0 ],
					"destination" : [ "obj-28", 0 ],
					"hidden" : 1,
					"color" : [ 0.0, 0.0, 0.0, 1.0 ],
					"midpoints" : [ 262.5, 413.5, 129.5, 413.5 ]
				}

			}
, 			{
				"patchline" : 				{
					"source" : [ "obj-40", 0 ],
					"destination" : [ "obj-1", 0 ],
					"hidden" : 0,
					"color" : [ 0.0, 0.0, 0.0, 1.0 ],
					"midpoints" : [ 262.5, 82.0, 129.5, 82.0 ]
				}

			}
, 			{
				"patchline" : 				{
					"source" : [ "obj-1", 0 ],
					"destination" : [ "obj-23", 0 ],
					"hidden" : 0,
					"color" : [ 0.0, 0.0, 0.0, 1.0 ],
					"midpoints" : [  ]
				}

			}
, 			{
				"patchline" : 				{
					"source" : [ "obj-5", 0 ],
					"destination" : [ "obj-1", 0 ],
					"hidden" : 0,
					"color" : [ 0.0, 0.0, 0.0, 1.0 ],
					"midpoints" : [ 69.5, 84.0, 129.5, 84.0 ]
				}

			}
, 			{
				"patchline" : 				{
					"source" : [ "obj-42", 0 ],
					"destination" : [ "obj-41", 0 ],
					"hidden" : 0,
					"color" : [ 0.0, 0.0, 0.0, 1.0 ],
					"midpoints" : [  ]
				}

			}
, 			{
				"patchline" : 				{
					"source" : [ "obj-43", 0 ],
					"destination" : [ "obj-41", 0 ],
					"hidden" : 0,
					"color" : [ 0.0, 0.0, 0.0, 1.0 ],
					"midpoints" : [  ]
				}

			}
, 			{
				"patchline" : 				{
					"source" : [ "obj-41", 0 ],
					"destination" : [ "obj-2", 0 ],
					"hidden" : 0,
					"color" : [ 0.0, 0.0, 0.0, 1.0 ],
					"midpoints" : [ 129.5, 735.0, 249.0, 735.0, 249.0, 729.0, 263.5, 729.0 ]
				}

			}
, 			{
				"patchline" : 				{
					"source" : [ "obj-51", 0 ],
					"destination" : [ "obj-41", 1 ],
					"hidden" : 0,
					"color" : [ 0.0, 0.0, 0.0, 1.0 ],
					"midpoints" : [ 264.5, 690.0, 140.833328, 690.0 ]
				}

			}
, 			{
				"patchline" : 				{
					"source" : [ "obj-53", 0 ],
					"destination" : [ "obj-41", 2 ],
					"hidden" : 0,
					"color" : [ 0.0, 0.0, 0.0, 1.0 ],
					"midpoints" : [ 399.5, 690.0, 152.166672, 690.0 ]
				}

			}
, 			{
				"patchline" : 				{
					"source" : [ "obj-54", 0 ],
					"destination" : [ "obj-41", 3 ],
					"hidden" : 0,
					"color" : [ 0.0, 0.0, 0.0, 1.0 ],
					"midpoints" : [ 534.5, 690.0, 163.5, 690.0 ]
				}

			}
, 			{
				"patchline" : 				{
					"source" : [ "obj-11", 0 ],
					"destination" : [ "obj-41", 5 ],
					"hidden" : 0,
					"color" : [ 0.0, 0.0, 0.0, 1.0 ],
					"midpoints" : [ 129.5, 690.5, 186.166672, 690.5 ]
				}

			}
, 			{
				"patchline" : 				{
					"source" : [ "obj-48", 0 ],
					"destination" : [ "obj-49", 1 ],
					"hidden" : 0,
					"color" : [ 0.0, 0.0, 0.0, 1.0 ],
					"midpoints" : [  ]
				}

			}
, 			{
				"patchline" : 				{
					"source" : [ "obj-2", 0 ],
					"destination" : [ "obj-48", 0 ],
					"hidden" : 0,
					"color" : [ 0.0, 0.0, 0.0, 1.0 ],
					"midpoints" : [  ]
				}

			}
, 			{
				"patchline" : 				{
					"source" : [ "obj-13", 0 ],
					"destination" : [ "obj-46", 0 ],
					"hidden" : 0,
					"color" : [ 0.0, 0.0, 0.0, 1.0 ],
					"midpoints" : [  ]
				}

			}
, 			{
				"patchline" : 				{
					"source" : [ "obj-39", 0 ],
					"destination" : [ "obj-37", 0 ],
					"hidden" : 0,
					"color" : [ 0.0, 0.0, 0.0, 1.0 ],
					"midpoints" : [  ]
				}

			}
, 			{
				"patchline" : 				{
					"source" : [ "obj-37", 0 ],
					"destination" : [ "obj-44", 0 ],
					"hidden" : 0,
					"color" : [ 0.0, 0.0, 0.0, 1.0 ],
					"midpoints" : [  ]
				}

			}
, 			{
				"patchline" : 				{
					"source" : [ "obj-44", 0 ],
					"destination" : [ "obj-38", 0 ],
					"hidden" : 0,
					"color" : [ 0.0, 0.0, 0.0, 1.0 ],
					"midpoints" : [  ]
				}

			}
, 			{
				"patchline" : 				{
					"source" : [ "obj-47", 0 ],
					"destination" : [ "obj-39", 0 ],
					"hidden" : 0,
					"color" : [ 0.0, 0.0, 0.0, 1.0 ],
					"midpoints" : [  ]
				}

			}
, 			{
				"patchline" : 				{
					"source" : [ "obj-46", 0 ],
					"destination" : [ "obj-47", 0 ],
					"hidden" : 0,
					"color" : [ 0.0, 0.0, 0.0, 1.0 ],
					"midpoints" : [  ]
				}

			}
, 			{
				"patchline" : 				{
					"source" : [ "obj-34", 0 ],
					"destination" : [ "obj-36", 0 ],
					"hidden" : 0,
					"color" : [ 0.0, 0.0, 0.0, 1.0 ],
					"midpoints" : [  ]
				}

			}
, 			{
				"patchline" : 				{
					"source" : [ "obj-36", 0 ],
					"destination" : [ "obj-31", 0 ],
					"hidden" : 0,
					"color" : [ 0.0, 0.0, 0.0, 1.0 ],
					"midpoints" : [  ]
				}

			}
, 			{
				"patchline" : 				{
					"source" : [ "obj-32", 0 ],
					"destination" : [ "obj-30", 0 ],
					"hidden" : 0,
					"color" : [ 0.0, 0.0, 0.0, 1.0 ],
					"midpoints" : [  ]
				}

			}
, 			{
				"patchline" : 				{
					"source" : [ "obj-29", 0 ],
					"destination" : [ "obj-32", 0 ],
					"hidden" : 0,
					"color" : [ 0.0, 0.0, 0.0, 1.0 ],
					"midpoints" : [  ]
				}

			}
, 			{
				"patchline" : 				{
					"source" : [ "obj-31", 0 ],
					"destination" : [ "obj-29", 0 ],
					"hidden" : 0,
					"color" : [ 0.0, 0.0, 0.0, 1.0 ],
					"midpoints" : [  ]
				}

			}
, 			{
				"patchline" : 				{
					"source" : [ "obj-12", 0 ],
					"destination" : [ "obj-24", 0 ],
					"hidden" : 0,
					"color" : [ 0.0, 0.0, 0.0, 1.0 ],
					"midpoints" : [  ]
				}

			}
, 			{
				"patchline" : 				{
					"source" : [ "obj-21", 0 ],
					"destination" : [ "obj-14", 0 ],
					"hidden" : 0,
					"color" : [ 0.0, 0.0, 0.0, 1.0 ],
					"midpoints" : [  ]
				}

			}
, 			{
				"patchline" : 				{
					"source" : [ "obj-14", 0 ],
					"destination" : [ "obj-22", 0 ],
					"hidden" : 0,
					"color" : [ 0.0, 0.0, 0.0, 1.0 ],
					"midpoints" : [  ]
				}

			}
, 			{
				"patchline" : 				{
					"source" : [ "obj-22", 0 ],
					"destination" : [ "obj-20", 0 ],
					"hidden" : 0,
					"color" : [ 0.0, 0.0, 0.0, 1.0 ],
					"midpoints" : [  ]
				}

			}
, 			{
				"patchline" : 				{
					"source" : [ "obj-27", 0 ],
					"destination" : [ "obj-21", 0 ],
					"hidden" : 0,
					"color" : [ 0.0, 0.0, 0.0, 1.0 ],
					"midpoints" : [  ]
				}

			}
, 			{
				"patchline" : 				{
					"source" : [ "obj-24", 0 ],
					"destination" : [ "obj-27", 0 ],
					"hidden" : 0,
					"color" : [ 0.0, 0.0, 0.0, 1.0 ],
					"midpoints" : [  ]
				}

			}
, 			{
				"patchline" : 				{
					"source" : [ "obj-10", 3 ],
					"destination" : [ "obj-3", 0 ],
					"hidden" : 0,
					"color" : [ 0.0, 0.0, 0.0, 1.0 ],
					"midpoints" : [  ]
				}

			}
, 			{
				"patchline" : 				{
					"source" : [ "obj-10", 2 ],
					"destination" : [ "obj-13", 0 ],
					"hidden" : 0,
					"color" : [ 0.0, 0.0, 0.0, 1.0 ],
					"midpoints" : [  ]
				}

			}
, 			{
				"patchline" : 				{
					"source" : [ "obj-10", 0 ],
					"destination" : [ "obj-11", 0 ],
					"hidden" : 0,
					"color" : [ 0.0, 0.0, 0.0, 1.0 ],
					"midpoints" : [  ]
				}

			}
, 			{
				"patchline" : 				{
					"source" : [ "obj-10", 1 ],
					"destination" : [ "obj-12", 0 ],
					"hidden" : 0,
					"color" : [ 0.0, 0.0, 0.0, 1.0 ],
					"midpoints" : [  ]
				}

			}
, 			{
				"patchline" : 				{
					"source" : [ "obj-58", 0 ],
					"destination" : [ "obj-42", 0 ],
					"hidden" : 0,
					"color" : [ 0.0, 0.0, 0.0, 1.0 ],
					"midpoints" : [  ]
				}

			}
, 			{
				"patchline" : 				{
					"source" : [ "obj-42", 0 ],
					"destination" : [ "obj-45", 0 ],
					"hidden" : 0,
					"color" : [ 0.0, 0.0, 0.0, 1.0 ],
					"midpoints" : [  ]
				}

			}
, 			{
				"patchline" : 				{
					"source" : [ "obj-23", 0 ],
					"destination" : [ "obj-4", 0 ],
					"hidden" : 0,
					"color" : [ 0.0, 0.0, 0.0, 1.0 ],
					"midpoints" : [  ]
				}

			}
, 			{
				"patchline" : 				{
					"source" : [ "obj-8", 0 ],
					"destination" : [ "obj-9", 0 ],
					"hidden" : 0,
					"color" : [ 0.0, 0.0, 0.0, 1.0 ],
					"midpoints" : [  ]
				}

			}
, 			{
				"patchline" : 				{
					"source" : [ "obj-7", 0 ],
					"destination" : [ "obj-8", 0 ],
					"hidden" : 0,
					"color" : [ 0.0, 0.0, 0.0, 1.0 ],
					"midpoints" : [  ]
				}

			}
, 			{
				"patchline" : 				{
					"source" : [ "obj-4", 2 ],
					"destination" : [ "obj-7", 0 ],
					"hidden" : 0,
					"color" : [ 0.0, 0.0, 0.0, 1.0 ],
					"midpoints" : [ 168.5, 189.0, 135.0, 189.0, 135.0, 194.0, 129.5, 194.0 ]
				}

			}
, 			{
				"patchline" : 				{
					"source" : [ "obj-4", 0 ],
					"destination" : [ "obj-7", 0 ],
					"hidden" : 0,
					"color" : [ 0.0, 0.0, 0.0, 1.0 ],
					"midpoints" : [  ]
				}

			}
, 			{
				"patchline" : 				{
					"source" : [ "obj-9", 0 ],
					"destination" : [ "obj-10", 0 ],
					"hidden" : 0,
					"color" : [ 0.0, 0.0, 0.0, 1.0 ],
					"midpoints" : [  ]
				}

			}
, 			{
				"patchline" : 				{
					"source" : [ "obj-50", 0 ],
					"destination" : [ "obj-34", 1 ],
					"hidden" : 0,
					"color" : [ 0.0, 0.0, 0.0, 1.0 ],
					"midpoints" : [  ]
				}

			}
, 			{
				"patchline" : 				{
					"source" : [ "obj-30", 0 ],
					"destination" : [ "obj-54", 0 ],
					"hidden" : 0,
					"color" : [ 0.0, 0.0, 0.0, 1.0 ],
					"midpoints" : [  ]
				}

			}
, 			{
				"patchline" : 				{
					"source" : [ "obj-38", 0 ],
					"destination" : [ "obj-53", 0 ],
					"hidden" : 0,
					"color" : [ 0.0, 0.0, 0.0, 1.0 ],
					"midpoints" : [  ]
				}

			}
, 			{
				"patchline" : 				{
					"source" : [ "obj-20", 0 ],
					"destination" : [ "obj-51", 0 ],
					"hidden" : 0,
					"color" : [ 0.0, 0.0, 0.0, 1.0 ],
					"midpoints" : [  ]
				}

			}
, 			{
				"patchline" : 				{
					"source" : [ "obj-21", 0 ],
					"destination" : [ "obj-51", 0 ],
					"hidden" : 0,
					"color" : [ 0.0, 0.0, 0.0, 1.0 ],
					"midpoints" : [  ]
				}

			}
, 			{
				"patchline" : 				{
					"source" : [ "obj-31", 0 ],
					"destination" : [ "obj-54", 0 ],
					"hidden" : 0,
					"color" : [ 0.0, 0.0, 0.0, 1.0 ],
					"midpoints" : [  ]
				}

			}
, 			{
				"patchline" : 				{
					"source" : [ "obj-39", 0 ],
					"destination" : [ "obj-53", 0 ],
					"hidden" : 0,
					"color" : [ 0.0, 0.0, 0.0, 1.0 ],
					"midpoints" : [  ]
				}

			}
, 			{
				"patchline" : 				{
					"source" : [ "obj-57", 0 ],
					"destination" : [ "obj-58", 0 ],
					"hidden" : 0,
					"color" : [ 0.0, 0.0, 0.0, 1.0 ],
					"midpoints" : [  ]
				}

			}
, 			{
				"patchline" : 				{
					"source" : [ "obj-11", 0 ],
					"destination" : [ "obj-57", 0 ],
					"hidden" : 0,
					"color" : [ 0.0, 0.0, 0.0, 1.0 ],
					"midpoints" : [ 129.5, 369.0, 129.5, 369.0 ]
				}

			}
, 			{
				"patchline" : 				{
					"source" : [ "obj-45", 0 ],
					"destination" : [ "obj-33", 0 ],
					"hidden" : 0,
					"color" : [ 0.0, 0.0, 0.0, 1.0 ],
					"midpoints" : [  ]
				}

			}
, 			{
				"patchline" : 				{
					"source" : [ "obj-33", 0 ],
					"destination" : [ "obj-43", 0 ],
					"hidden" : 0,
					"color" : [ 0.0, 0.0, 0.0, 1.0 ],
					"midpoints" : [  ]
				}

			}
, 			{
				"patchline" : 				{
					"source" : [ "obj-55", 0 ],
					"destination" : [ "obj-57", 1 ],
					"hidden" : 0,
					"color" : [ 0.0, 0.0, 0.0, 1.0 ],
					"midpoints" : [ 9.5, 400.0, 143.0, 400.0 ]
				}

			}
, 			{
				"patchline" : 				{
					"source" : [ "obj-55", 0 ],
					"destination" : [ "obj-24", 1 ],
					"hidden" : 0,
					"color" : [ 0.0, 0.0, 0.0, 1.0 ],
					"midpoints" : [ 9.5, 399.0, 278.0, 399.0 ]
				}

			}
, 			{
				"patchline" : 				{
					"source" : [ "obj-55", 0 ],
					"destination" : [ "obj-46", 1 ],
					"hidden" : 0,
					"color" : [ 0.0, 0.0, 0.0, 1.0 ],
					"midpoints" : [ 9.5, 399.0, 413.0, 399.0 ]
				}

			}
, 			{
				"patchline" : 				{
					"source" : [ "obj-55", 0 ],
					"destination" : [ "obj-34", 1 ],
					"hidden" : 0,
					"color" : [ 0.0, 0.0, 0.0, 1.0 ],
					"midpoints" : [ 9.5, 399.0, 240.0, 399.0, 240.0, 399.0, 432.0, 399.0, 432.0, 399.0, 510.0, 399.0, 510.0, 399.0, 548.0, 399.0 ]
				}

			}
, 			{
				"patchline" : 				{
					"source" : [ "obj-56", 0 ],
					"destination" : [ "obj-33", 1 ],
					"hidden" : 0,
					"color" : [ 0.0, 0.0, 0.0, 1.0 ],
					"midpoints" : [ 69.5, 580.0, 117.0, 580.0, 117.0, 582.0, 158.5, 582.0 ]
				}

			}
, 			{
				"patchline" : 				{
					"source" : [ "obj-56", 0 ],
					"destination" : [ "obj-22", 1 ],
					"hidden" : 0,
					"color" : [ 0.0, 0.0, 0.0, 1.0 ],
					"midpoints" : [ 69.5, 580.0, 240.0, 580.0, 240.0, 582.0, 299.5, 582.0 ]
				}

			}
, 			{
				"patchline" : 				{
					"source" : [ "obj-56", 0 ],
					"destination" : [ "obj-44", 1 ],
					"hidden" : 0,
					"color" : [ 0.0, 0.0, 0.0, 1.0 ],
					"midpoints" : [ 69.5, 580.0, 375.0, 580.0, 375.0, 582.0, 434.5, 582.0 ]
				}

			}
, 			{
				"patchline" : 				{
					"source" : [ "obj-56", 0 ],
					"destination" : [ "obj-32", 1 ],
					"hidden" : 0,
					"color" : [ 0.0, 0.0, 0.0, 1.0 ],
					"midpoints" : [ 69.5, 580.0, 510.0, 580.0, 510.0, 582.0, 569.5, 582.0 ]
				}

			}
, 			{
				"patchline" : 				{
					"source" : [ "obj-6", 0 ],
					"destination" : [ "obj-5", 0 ],
					"hidden" : 0,
					"color" : [ 0.0, 0.0, 0.0, 1.0 ],
					"midpoints" : [  ]
				}

			}
, 			{
				"patchline" : 				{
					"source" : [ "obj-12", 0 ],
					"destination" : [ "obj-41", 7 ],
					"hidden" : 0,
					"color" : [ 0.0, 0.0, 0.0, 1.0 ],
					"midpoints" : [ 264.5, 690.5, 208.833328, 690.5 ]
				}

			}
, 			{
				"patchline" : 				{
					"source" : [ "obj-13", 0 ],
					"destination" : [ "obj-41", 9 ],
					"hidden" : 0,
					"color" : [ 0.0, 0.0, 0.0, 1.0 ],
					"midpoints" : [ 399.5, 689.5, 231.5, 689.5 ]
				}

			}
, 			{
				"patchline" : 				{
					"source" : [ "obj-11", 0 ],
					"destination" : [ "obj-52", 0 ],
					"hidden" : 0,
					"color" : [ 0.0, 0.0, 0.0, 1.0 ],
					"midpoints" : [ 129.5, 369.0, 120.0, 369.0, 120.0, 402.0, 182.5, 402.0 ]
				}

			}
, 			{
				"patchline" : 				{
					"source" : [ "obj-59", 0 ],
					"destination" : [ "obj-52", 1 ],
					"hidden" : 0,
					"color" : [ 0.0, 0.0, 0.0, 1.0 ],
					"midpoints" : [ 0.5, 429.0, 168.0, 429.0, 168.0, 405.0, 196.0, 405.0 ]
				}

			}
, 			{
				"patchline" : 				{
					"source" : [ "obj-52", 0 ],
					"destination" : [ "obj-41", 4 ],
					"hidden" : 0,
					"color" : [ 0.0, 0.0, 0.0, 1.0 ],
					"midpoints" : [ 182.5, 438.0, 174.833328, 438.0 ]
				}

			}
, 			{
				"patchline" : 				{
					"source" : [ "obj-59", 0 ],
					"destination" : [ "obj-62", 1 ],
					"hidden" : 1,
					"color" : [ 0.0, 0.0, 0.0, 1.0 ],
					"midpoints" : [ 0.5, 472.0, 161.75, 472.0, 161.75, 395.0, 323.0, 395.0 ]
				}

			}
, 			{
				"patchline" : 				{
					"source" : [ "obj-62", 0 ],
					"destination" : [ "obj-41", 6 ],
					"hidden" : 0,
					"color" : [ 0.0, 0.0, 0.0, 1.0 ],
					"midpoints" : [ 309.5, 690.5, 197.5, 690.5 ]
				}

			}
, 			{
				"patchline" : 				{
					"source" : [ "obj-12", 0 ],
					"destination" : [ "obj-62", 0 ],
					"hidden" : 0,
					"color" : [ 0.0, 0.0, 0.0, 1.0 ],
					"midpoints" : [ 264.5, 372.0, 252.0, 372.0, 252.0, 402.0, 309.5, 402.0 ]
				}

			}
, 			{
				"patchline" : 				{
					"source" : [ "obj-64", 0 ],
					"destination" : [ "obj-41", 8 ],
					"hidden" : 0,
					"color" : [ 0.0, 0.0, 0.0, 1.0 ],
					"midpoints" : [ 444.5, 690.5, 220.166672, 690.5 ]
				}

			}
, 			{
				"patchline" : 				{
					"source" : [ "obj-59", 0 ],
					"destination" : [ "obj-64", 1 ],
					"hidden" : 1,
					"color" : [ 0.0, 0.0, 0.0, 1.0 ],
					"midpoints" : [ 0.5, 472.0, 229.25, 472.0, 229.25, 395.0, 458.0, 395.0 ]
				}

			}
, 			{
				"patchline" : 				{
					"source" : [ "obj-13", 0 ],
					"destination" : [ "obj-64", 0 ],
					"hidden" : 0,
					"color" : [ 0.0, 0.0, 0.0, 1.0 ],
					"midpoints" : [ 399.5, 372.0, 471.0, 372.0, 471.0, 402.0, 444.5, 402.0 ]
				}

			}
, 			{
				"patchline" : 				{
					"source" : [ "obj-59", 0 ],
					"destination" : [ "obj-63", 1 ],
					"hidden" : 1,
					"color" : [ 0.0, 0.0, 0.0, 1.0 ],
					"midpoints" : [ 0.5, 472.0, 296.75, 472.0, 296.75, 395.0, 593.0, 395.0 ]
				}

			}
, 			{
				"patchline" : 				{
					"source" : [ "obj-3", 0 ],
					"destination" : [ "obj-63", 0 ],
					"hidden" : 0,
					"color" : [ 0.0, 0.0, 0.0, 1.0 ],
					"midpoints" : [ 534.5, 372.0, 522.0, 372.0, 522.0, 402.0, 579.5, 402.0 ]
				}

			}
, 			{
				"patchline" : 				{
					"source" : [ "obj-69", 0 ],
					"destination" : [ "obj-70", 0 ],
					"hidden" : 0,
					"color" : [ 0.0, 0.0, 0.0, 1.0 ],
					"midpoints" : [  ]
				}

			}
, 			{
				"patchline" : 				{
					"source" : [ "obj-70", 0 ],
					"destination" : [ "obj-6", 0 ],
					"hidden" : 0,
					"color" : [ 0.0, 0.0, 0.0, 1.0 ],
					"midpoints" : [  ]
				}

			}
 ]
	}

}
